<?xml version="1.0" encoding="UTF-8" standalone="no"?><!DOCTYPE svg PUBLIC "-//W3C//DTD SVG 1.1//EN" "http://www.w3.org/Graphics/SVG/1.1/DTD/svg11.dtd"><svg width="100%" height="100%" viewBox="0 0 804 804" version="1.1" xmlns="http://www.w3.org/2000/svg" xmlns:xlink="http://www.w3.org/1999/xlink" xml:space="preserve" xmlns:serif="http://www.serif.com/" style="fill-rule:evenodd;clip-rule:evenodd;stroke-linejoin:round;stroke-miterlimit:1.41421;"><g><path d="M416.31,803.722c-16.419,0 -31.453,-8.362 -45.125,-16.622c-14.456,-8.756 -28.553,-18.5 -42.359,-28.231c-37.65,-26.553 -74.497,-54.662 -110.847,-82.956c-37.022,-28.81 -73.835,-58.166 -109.794,-88.306c-12.613,-10.582 -25.259,-21.319 -37.391,-32.444c-11.693,-10.719 -23.862,-21.813 -27.94,-37.869c-4.691,-18.556 3.587,-46.134 8.481,-64.462c7.066,-26.472 15.003,-52.822 23.128,-78.969c7.781,-25.053 15.838,-50.056 24.388,-74.856c3.225,-9.354 6.521,-18.704 10.037,-27.954c2.663,-6.996 5.597,-14.593 9.331,-21.059c5.31,-9.169 14.1,-17.444 21.863,-24.628c9.697,-8.959 19.765,-17.597 29.853,-26.116c27.441,-23.159 55.584,-45.653 83.897,-67.722c28.744,-22.421 57.959,-44.662 87.778,-65.621c11.106,-7.797 22.459,-15.597 34.078,-22.594c12.513,-7.506 25.584,-14.419 40.622,-14.419c15.019,0 28.091,6.913 40.603,14.419c11.619,6.997 22.969,14.797 34.078,22.594c29.835,20.959 59.038,43.2 87.778,65.621c28.332,22.069 56.457,44.563 83.897,67.722c10.088,8.519 20.16,17.157 29.853,26.116c7.766,7.184 16.553,15.459 21.86,24.628c3.74,6.466 6.675,14.063 9.337,21.059c3.531,9.25 6.828,18.6 10.035,27.954c8.55,24.8 16.606,49.803 24.39,74.856c8.122,26.147 16.06,52.497 23.125,78.969c4.897,18.328 13.172,45.906 8.481,64.462c-4.078,16.056 -16.246,27.15 -27.937,37.869c-12.134,11.125 -24.784,21.862 -37.394,32.444c-35.959,30.14 -72.756,59.496 -109.794,88.306c-36.35,28.294 -73.196,56.403 -110.846,82.956c-13.807,9.731 -27.904,19.475 -42.36,28.231c-13.669,8.26 -28.703,16.622 -45.106,16.622" style="fill:#a7a9ac;"/><path d="M387.399,774.828c-16.419,0 -31.453,-8.362 -45.109,-16.637c-14.454,-8.757 -28.554,-18.485 -42.36,-28.229c-37.65,-26.543 -74.512,-54.65 -110.847,-82.946c-37.037,-28.825 -73.847,-58.166 -109.79,-88.319c-12.613,-10.585 -25.26,-21.303 -37.394,-32.428c-11.709,-10.719 -23.859,-21.813 -27.938,-37.888c-4.712,-18.537 3.582,-46.134 8.482,-64.462c7.065,-26.453 14.984,-52.803 23.125,-78.969c7.781,-25.034 15.837,-50.056 24.372,-74.838c3.225,-9.368 6.518,-18.721 10.05,-27.953c2.662,-6.997 5.584,-14.593 9.337,-21.059c5.306,-9.166 14.097,-17.459 21.863,-24.631c9.693,-8.957 19.762,-17.613 29.85,-26.113c27.443,-23.159 55.568,-45.669 83.884,-67.734c28.756,-22.41 57.959,-44.65 87.791,-65.606c11.109,-7.819 22.44,-15.6 34.081,-22.597c12.509,-7.506 25.584,-14.419 40.603,-14.419c15.037,0 28.106,6.913 40.6,14.419c11.641,6.997 22.991,14.778 34.084,22.597c29.832,20.956 59.035,43.196 87.791,65.606c28.312,22.065 56.456,44.575 83.881,67.734c10.091,8.5 20.175,17.156 29.869,26.113c7.762,7.172 16.553,15.465 21.862,24.631c3.738,6.466 6.657,14.062 9.335,21.059c3.515,9.232 6.809,18.585 10.037,27.953c8.55,24.782 16.607,49.804 24.388,74.838c8.122,26.166 16.04,52.516 23.125,78.969c4.897,18.328 13.175,45.925 8.465,64.462c-4.062,16.075 -16.231,27.169 -27.921,37.888c-12.135,11.125 -24.782,21.843 -37.394,32.428c-35.96,30.153 -72.772,59.494 -109.791,88.319c-36.35,28.296 -73.215,56.403 -110.847,82.946c-13.809,9.744 -27.922,19.472 -42.378,28.229c-13.653,8.275 -28.69,16.637 -45.106,16.637" style="fill:#fff;"/><path d="M644.491,371.303c-1.4,-4.49 1.129,-9.284 5.616,-10.684c4.488,-1.4 9.284,1.125 10.681,5.613c7.188,23.125 14.169,46.337 20.569,69.703c2.541,9.3 4.95,18.637 7.166,28.006c0.734,3.106 -0.203,6.144 -2.575,8.294c-2.678,2.44 -5.444,4.812 -8.16,7.218c-11.672,10.36 -23.603,20.413 -35.6,30.379c-33.006,27.478 -66.593,54.24 -100.49,80.625c-3.703,2.884 -9.094,2.218 -11.982,-1.504c-2.881,-3.7 -2.218,-9.078 1.504,-11.962c137.815,-107.281 139.881,-120.081 113.271,-205.688m-267.112,75.894c-23.159,-17.75 -212.141,-167.559 -209.016,-172.987c3.125,-5.428 196.082,137.793 219.035,155.409c22.972,-17.616 214.768,-160.987 219.034,-155.409c4.284,5.581 -185.856,155.237 -209,172.987c0,26.61 -4.178,240.35 -10.034,240.35c-5.872,0 -10.035,-213.74 -10.019,-240.35m10.019,281.553c-26.744,0 -325.122,-237.331 -328.775,-251.684c-3.635,-14.372 59.512,-213.747 70.59,-232.897c11.075,-19.147 237.144,-198.091 258.185,-198.091c21.043,0 247.109,178.944 258.187,198.091c11.091,19.15 74.238,218.525 70.588,232.897c-3.635,14.353 -302.013,251.684 -328.775,251.684" style="fill:#482418;"/></g></svg>